<svg xmlns="http://www.w3.org/2000/svg" viewBox="0 0 192 192">
  <rect width="192" height="192" rx="38" fill="#10b981" />
  <path d="M60 138c-6.6 0-12-5.4-12-12s5.4-12 12-12 12 5.4 12 12-5.4 12-12 12zm84 0c-6.6 0-12-5.4-12-12s5.4-12 12-12 12 5.4 12 12-5.4 12-12 12zm0-72c0-6.6-5.4-12-12-12H63l-3.8-15H30c-5 0-9 4-9 9s4 9 9 9h19.5l16.6 66.5c-.9 2.6-1.4 5.3-1.4 8.1 0 13.2 10.8 24 24 24h66c5 0 9-4 9-9s-4-9-9-9H88.8c-3.3 0-6-2.7-6-6 0-.7.1-1.4.3-2l4.6-18.6H138c8.6 0 16.2-5.7 18.9-13.8l11-33c.8-2.3 1.2-4.7 1.2-7.1z" fill="#ffffff" />
</svg>
