<svg xmlns="http://www.w3.org/2000/svg" viewBox="0 0 512 512">
  <rect width="512" height="512" rx="100" fill="#10b981" />
  <path d="M160 368c-17.6 0-32-14.4-32-32s14.4-32 32-32 32 14.4 32 32-14.4 32-32 32zm224 0c-17.6 0-32-14.4-32-32s14.4-32 32-32 32 14.4 32 32-14.4 32-32 32zm0-192c0-17.7-14.3-32-32-32H168l-10-40H80c-13.3 0-24 10.7-24 24s10.7 24 24 24h52l44.3 177.3c-2.3 6.9-3.6 14.2-3.6 21.7 0 35.3 28.7 64 64 64h176c13.3 0 24-10.7 24-24s-10.7-24-24-24H236.7c-8.8 0-16-7.2-16-16 0-1.8.3-3.6.9-5.3l12.4-49.7H368c22.8 0 43.1-15.1 50.4-36.9l29.4-88.1c2-6 3.1-12.4 3.1-18.9z" fill="#ffffff" />
</svg>
